<?xml version="1.0" encoding="UTF-8"?>
<svg width="100%" height="100%" viewBox="0 0 17 11.5" version="1.1" xmlns="http://www.w3.org/2000/svg" xmlns:xlink="http://www.w3.org/1999/xlink">
    <title>cv-file-interface-symbol-svgrepo-com</title>
    <g id="页面-1" stroke="none" stroke-width="1" fill="none" fill-rule="evenodd">
        <g id="cv-file-interface-symbol-svgrepo-com" transform="translate(0.055000, 0.409000)" fill="#000000" fill-rule="nonzero">
            <path d="M5.503,5.98 C5.436,6.156 5.348,6.308 5.239,6.435 C5.131,6.564 4.999,6.664 4.843,6.736 C4.687,6.808 4.496,6.843 4.273,6.843 C3.96,6.843 3.701,6.775 3.493,6.64 C3.285,6.503 3.119,6.324 2.995,6.099 C2.871,5.876 2.781,5.622 2.725,5.343 C2.668,5.064 2.641,4.779 2.641,4.491 C2.641,4.202 2.668,3.919 2.725,3.638 C2.781,3.357 2.871,3.105 2.995,2.882 C3.119,2.657 3.285,2.478 3.493,2.341 C3.701,2.204 3.961,2.138 4.273,2.138 C4.544,2.138 4.767,2.189 4.939,2.292 C5.111,2.397 5.249,2.517 5.353,2.653 C5.457,2.79 5.529,2.926 5.569,3.067 C5.609,3.206 5.637,3.317 5.653,3.397 L8.221,3.397 C8.109,2.317 7.731,1.483 7.086,0.895 C6.442,0.307 5.528,0.008 4.345,0 C3.681,0 3.082,0.107 2.551,0.324 C2.019,0.539 1.563,0.844 1.183,1.236 C0.803,1.628 0.511,2.099 0.307,2.652 C0.103,3.203 1.77635684e-15,3.817 1.77635684e-15,4.488 C1.77635684e-15,5.119 0.097,5.711 0.288,6.258 C0.48,6.807 0.763,7.279 1.135,7.68 C1.507,8.081 1.96,8.397 2.496,8.629 C3.032,8.859 3.648,8.977 4.345,8.977 C4.969,8.977 5.525,8.872 6.013,8.665 C6.5,8.456 6.91,8.183 7.242,7.843 C7.574,7.503 7.826,7.12 7.998,6.697 C8.17,6.275 8.257,5.845 8.257,5.414 L5.664,5.414 C5.625,5.614 5.572,5.805 5.503,5.98 Z" id="路径"></path>
            <path id="路径" d="M12.565 5.403 12.541 5.403 11.137 0.207 8.473 0.207 11.029 8.775 13.981 8.775 16.658 0.207 13.945 0.207z"></path>
        </g>
    </g>
</svg>