<?xml version="1.0" encoding="iso-8859-1"?>
<!-- Generator: Adobe Illustrator 18.1.1, SVG Export Plug-In . SVG Version: 6.00 Build 0)  -->
<svg version="1.1" id="Capa_1" xmlns="http://www.w3.org/2000/svg" xmlns:xlink="http://www.w3.org/1999/xlink" x="0px" y="0px"
	 width="24px" height="24px" viewBox="0 0 303.84 303.84" style="enable-background:new 0 0 303.84 303.84;" xml:space="preserve">
<g>
	<path style="fill:#ffffff;" d="M253.352,88.867l0.359-33.755c0.082-7.452-5.896-13.494-13.347-13.494h-8.349
		c-7.452,0-13.494,6.043-13.494,13.494v3.965c0,7.452-4.645,9.633-10.372,4.868l-44.453-36.969
		c-5.727-4.776-15.055-4.814-20.826-0.103L3.579,140.51c-5.776,4.71-4.417,8.528,3.035,8.528h7.914
		c7.452,0,18.281-3.677,24.198-8.218l103.892-79.78c5.907-4.536,15.398-4.411,21.185,0.277l99.785,80.873
		c5.787,4.688,16.524,8.496,23.975,8.496h9.611c7.452,0,8.871-3.889,3.166-8.686l-36.806-30.959
		C257.828,106.244,253.27,96.318,253.352,88.867z"/>
	<path style="fill:#ffffff;" d="M141.59,81.769l-79.878,61.385c-5.907,4.542-10.699,14.267-10.699,21.718v102.124
		c0,7.452,6.043,13.483,13.494,13.478l46.395-0.082c7.452-0.011,13.505-6.059,13.516-13.511l0.071-38.144
		c0.016-7.452-0.713-17.661,2.067-21.191c1.36-1.713,3.59-3.051,7.234-3.051c13.783,0,20.32,0,35.294,0
		c12.298,0,11.498,10.748,11.498,10.748l-0.098,51.415c-0.011,7.452,6.016,13.489,13.473,13.489h46.401
		c7.452,0,13.494-6.037,13.494-13.489V164.872c0-7.452-4.797-17.171-10.71-21.707l-80.139-61.407
		C157.086,77.221,147.502,77.232,141.59,81.769z M134.416,169.191c-5.124,0-9.279-4.15-9.279-9.274c0-5.124,4.155-9.279,9.279-9.279
		s9.279,4.155,9.279,9.279C143.695,165.041,139.54,169.191,134.416,169.191z M134.416,132.074c-5.124,0-9.279-4.155-9.279-9.279
		s4.155-9.279,9.279-9.279s9.279,4.155,9.279,9.279S139.54,132.074,134.416,132.074z M171.538,169.191
		c-5.124,0-9.279-4.15-9.279-9.274c0-5.124,4.155-9.279,9.279-9.279c5.124,0,9.279,4.155,9.279,9.279
		C180.811,165.041,176.661,169.191,171.538,169.191z M171.538,132.074c-5.124,0-9.279-4.155-9.279-9.279s4.155-9.279,9.279-9.279
		c5.124,0,9.279,4.155,9.279,9.279S176.661,132.074,171.538,132.074z"/>
</g>
<g>
</g>
<g>
</g>
<g>
</g>
<g>
</g>
<g>
</g>
<g>
</g>
<g>
</g>
<g>
</g>
<g>
</g>
<g>
</g>
<g>
</g>
<g>
</g>
<g>
</g>
<g>
</g>
<g>
</g>
</svg>
